<mxfile host="Electron" modified="2023-06-07T13:00:56.376Z" agent="Mozilla/5.0 (Macintosh; Intel Mac OS X 10_15_7) AppleWebKit/537.36 (KHTML, like Gecko) draw.io/21.2.8 Chrome/112.0.5615.165 Electron/24.2.0 Safari/537.36" etag="fYwHuK6BosBR-LADnqre" version="21.2.8" type="device">
  <diagram name="Page-1" id="IanU65lXr5YfgjGVrclR">
    <mxGraphModel dx="2336" dy="921" grid="1" gridSize="10" guides="1" tooltips="1" connect="1" arrows="1" fold="1" page="1" pageScale="1" pageWidth="1169" pageHeight="827" math="0" shadow="0">
      <root>
        <mxCell id="0" />
        <mxCell id="g_2dzEI5n_QhCMGsD6OV-253" value="Initial" style="" parent="0" />
        <mxCell id="g_2dzEI5n_QhCMGsD6OV-257" value="&lt;font style=&quot;font-size: 20px;&quot;&gt;User&lt;/font&gt;" style="sketch=0;outlineConnect=0;fontColor=#232F3E;gradientColor=none;fillColor=#232F3D;strokeColor=none;dashed=0;verticalLabelPosition=bottom;verticalAlign=top;align=center;html=1;fontSize=12;fontStyle=0;aspect=fixed;pointerEvents=1;shape=mxgraph.aws4.user;" parent="g_2dzEI5n_QhCMGsD6OV-253" vertex="1">
          <mxGeometry x="51.35" y="700" width="78" height="78" as="geometry" />
        </mxCell>
        <mxCell id="g_2dzEI5n_QhCMGsD6OV-274" value="" style="group" parent="g_2dzEI5n_QhCMGsD6OV-253" vertex="1" connectable="0">
          <mxGeometry x="10" y="50" width="540" height="550" as="geometry" />
        </mxCell>
        <mxCell id="g_2dzEI5n_QhCMGsD6OV-275" value="" style="rounded=1;whiteSpace=wrap;html=1;fontSize=18;" parent="g_2dzEI5n_QhCMGsD6OV-274" vertex="1">
          <mxGeometry width="540" height="550" as="geometry" />
        </mxCell>
        <mxCell id="g_2dzEI5n_QhCMGsD6OV-276" value="&lt;b style=&quot;font-size: 18px;&quot;&gt;Data steward - UvA&lt;br&gt;&lt;/b&gt;" style="text;html=1;strokeColor=none;fillColor=none;align=center;verticalAlign=middle;whiteSpace=wrap;rounded=0;fontSize=18;" parent="g_2dzEI5n_QhCMGsD6OV-274" vertex="1">
          <mxGeometry x="12.558139534883724" width="268.8320930232559" height="58.06451612903225" as="geometry" />
        </mxCell>
        <mxCell id="g_2dzEI5n_QhCMGsD6OV-277" value="&lt;font style=&quot;font-size: 20px;&quot;&gt;Data pod&lt;/font&gt;" style="sketch=0;outlineConnect=0;fontColor=#232F3E;gradientColor=none;fillColor=#000000;strokeColor=none;dashed=0;verticalLabelPosition=bottom;verticalAlign=top;align=center;html=1;fontSize=12;fontStyle=0;aspect=fixed;pointerEvents=1;shape=mxgraph.aws4.vault;" parent="g_2dzEI5n_QhCMGsD6OV-274" vertex="1">
          <mxGeometry x="12.5625581395349" y="50.00462365591395" width="65.41757385292269" height="82.3029541169076" as="geometry" />
        </mxCell>
        <mxCell id="g_2dzEI5n_QhCMGsD6OV-278" value="&lt;font style=&quot;font-size: 18px;&quot;&gt;Distributed agent&lt;br&gt;&lt;/font&gt;" style="ellipse;whiteSpace=wrap;html=1;fontSize=18;" parent="g_2dzEI5n_QhCMGsD6OV-274" vertex="1">
          <mxGeometry x="10.002325581395354" y="400.00365591397843" width="140.70139534883722" height="109.21935483870966" as="geometry" />
        </mxCell>
        <mxCell id="pj6VdCcsgE9oZzwB23yW-29" value="" style="group" vertex="1" connectable="0" parent="g_2dzEI5n_QhCMGsD6OV-274">
          <mxGeometry x="350" y="401.94000000000005" width="100" height="101.94" as="geometry" />
        </mxCell>
        <mxCell id="pj6VdCcsgE9oZzwB23yW-30" value="" style="sketch=0;html=1;dashed=0;whitespace=wrap;fillColor=#2875E2;strokeColor=#ffffff;points=[[0.005,0.63,0],[0.1,0.2,0],[0.9,0.2,0],[0.5,0,0],[0.995,0.63,0],[0.72,0.99,0],[0.5,1,0],[0.28,0.99,0]];verticalLabelPosition=bottom;align=center;verticalAlign=top;shape=mxgraph.kubernetes.icon;prIcon=pod" vertex="1" parent="pj6VdCcsgE9oZzwB23yW-29">
          <mxGeometry width="100" height="71.94" as="geometry" />
        </mxCell>
        <mxCell id="pj6VdCcsgE9oZzwB23yW-31" value="&lt;span style=&quot;font-size: 16px;&quot;&gt;Graph&lt;/span&gt;" style="text;html=1;strokeColor=none;fillColor=none;align=center;verticalAlign=middle;whiteSpace=wrap;rounded=0;" vertex="1" parent="pj6VdCcsgE9oZzwB23yW-29">
          <mxGeometry x="20" y="71.94" width="60" height="30" as="geometry" />
        </mxCell>
        <mxCell id="pj6VdCcsgE9oZzwB23yW-26" value="" style="group" vertex="1" connectable="0" parent="g_2dzEI5n_QhCMGsD6OV-274">
          <mxGeometry x="350" y="281.94000000000005" width="100" height="101.94" as="geometry" />
        </mxCell>
        <mxCell id="pj6VdCcsgE9oZzwB23yW-27" value="" style="sketch=0;html=1;dashed=0;whitespace=wrap;fillColor=#2875E2;strokeColor=#ffffff;points=[[0.005,0.63,0],[0.1,0.2,0],[0.9,0.2,0],[0.5,0,0],[0.995,0.63,0],[0.72,0.99,0],[0.5,1,0],[0.28,0.99,0]];verticalLabelPosition=bottom;align=center;verticalAlign=top;shape=mxgraph.kubernetes.icon;prIcon=pod" vertex="1" parent="pj6VdCcsgE9oZzwB23yW-26">
          <mxGeometry width="100" height="71.94" as="geometry" />
        </mxCell>
        <mxCell id="pj6VdCcsgE9oZzwB23yW-28" value="&lt;span style=&quot;font-size: 16px;&quot;&gt;Algorithm&lt;/span&gt;" style="text;html=1;strokeColor=none;fillColor=none;align=center;verticalAlign=middle;whiteSpace=wrap;rounded=0;" vertex="1" parent="pj6VdCcsgE9oZzwB23yW-26">
          <mxGeometry x="20" y="71.94" width="60" height="30" as="geometry" />
        </mxCell>
        <mxCell id="pj6VdCcsgE9oZzwB23yW-12" value="" style="group" vertex="1" connectable="0" parent="g_2dzEI5n_QhCMGsD6OV-274">
          <mxGeometry x="350" y="30" width="100" height="101.94" as="geometry" />
        </mxCell>
        <mxCell id="pj6VdCcsgE9oZzwB23yW-9" value="" style="sketch=0;html=1;dashed=0;whitespace=wrap;fillColor=#2875E2;strokeColor=#ffffff;points=[[0.005,0.63,0],[0.1,0.2,0],[0.9,0.2,0],[0.5,0,0],[0.995,0.63,0],[0.72,0.99,0],[0.5,1,0],[0.28,0.99,0]];verticalLabelPosition=bottom;align=center;verticalAlign=top;shape=mxgraph.kubernetes.icon;prIcon=pod" vertex="1" parent="pj6VdCcsgE9oZzwB23yW-12">
          <mxGeometry width="100" height="71.94" as="geometry" />
        </mxCell>
        <mxCell id="pj6VdCcsgE9oZzwB23yW-11" value="&lt;font style=&quot;font-size: 16px;&quot;&gt;Query&lt;/font&gt;" style="text;html=1;strokeColor=none;fillColor=none;align=center;verticalAlign=middle;whiteSpace=wrap;rounded=0;" vertex="1" parent="pj6VdCcsgE9oZzwB23yW-12">
          <mxGeometry x="20" y="71.94" width="60" height="30" as="geometry" />
        </mxCell>
        <mxCell id="pj6VdCcsgE9oZzwB23yW-21" value="" style="group" vertex="1" connectable="0" parent="g_2dzEI5n_QhCMGsD6OV-274">
          <mxGeometry x="350" y="160.00000000000006" width="100" height="101.94" as="geometry" />
        </mxCell>
        <mxCell id="pj6VdCcsgE9oZzwB23yW-22" value="" style="sketch=0;html=1;dashed=0;whitespace=wrap;fillColor=#2875E2;strokeColor=#ffffff;points=[[0.005,0.63,0],[0.1,0.2,0],[0.9,0.2,0],[0.5,0,0],[0.995,0.63,0],[0.72,0.99,0],[0.5,1,0],[0.28,0.99,0]];verticalLabelPosition=bottom;align=center;verticalAlign=top;shape=mxgraph.kubernetes.icon;prIcon=pod" vertex="1" parent="pj6VdCcsgE9oZzwB23yW-21">
          <mxGeometry width="100" height="71.94" as="geometry" />
        </mxCell>
        <mxCell id="pj6VdCcsgE9oZzwB23yW-23" value="&lt;span style=&quot;font-size: 16px;&quot;&gt;Anonymize&lt;/span&gt;" style="text;html=1;strokeColor=none;fillColor=none;align=center;verticalAlign=middle;whiteSpace=wrap;rounded=0;" vertex="1" parent="pj6VdCcsgE9oZzwB23yW-21">
          <mxGeometry x="20" y="71.94" width="60" height="30" as="geometry" />
        </mxCell>
        <mxCell id="pj6VdCcsgE9oZzwB23yW-1" style="edgeStyle=orthogonalEdgeStyle;rounded=0;orthogonalLoop=1;jettySize=auto;html=1;fillColor=#dae8fc;strokeColor=#6c8ebf;strokeWidth=4;" edge="1" parent="g_2dzEI5n_QhCMGsD6OV-253" source="g_2dzEI5n_QhCMGsD6OV-257" target="g_2dzEI5n_QhCMGsD6OV-278">
          <mxGeometry relative="1" as="geometry" />
        </mxCell>
        <mxCell id="pj6VdCcsgE9oZzwB23yW-3" value="&lt;font style=&quot;font-size: 16px;&quot;&gt;sqlDataRequest&lt;/font&gt;" style="edgeLabel;html=1;align=center;verticalAlign=middle;resizable=0;points=[];" vertex="1" connectable="0" parent="pj6VdCcsgE9oZzwB23yW-1">
          <mxGeometry x="-0.3057" y="1" relative="1" as="geometry">
            <mxPoint as="offset" />
          </mxGeometry>
        </mxCell>
        <mxCell id="pj6VdCcsgE9oZzwB23yW-6" value="JSON" parent="0" />
        <mxCell id="pj6VdCcsgE9oZzwB23yW-7" value="&lt;div style=&quot;background-color: rgb(255, 255, 254); line-height: 18px;&quot;&gt;&lt;div&gt;{&lt;/div&gt;&lt;div&gt;    &quot;type&quot;: &lt;span style=&quot;color: #0451a5;&quot;&gt;&quot;dataRequestSql&quot;&lt;/span&gt;,&lt;/div&gt;&lt;div&gt;    &lt;span style=&quot;color: #a31515;&quot;&gt;&quot;providers&quot;&lt;/span&gt; : [&lt;span style=&quot;color: #0451a5;&quot;&gt;&quot;VU&quot;&lt;/span&gt;, &lt;span style=&quot;color: #0451a5;&quot;&gt;&quot;UVA&quot;&lt;/span&gt;],&lt;/div&gt;&lt;div&gt;    &lt;span style=&quot;color: #a31515;&quot;&gt;&quot;query&quot;&lt;/span&gt; : &lt;span style=&quot;color: #0451a5;&quot;&gt;&quot;SELECT p.Unieknr p.Geslacht p.Gebdat s.Aanst_22 as Salary FROM person p JOIN salary s ON p.Unieknr = s.Unieknr&quot;&lt;/span&gt;,&lt;/div&gt;&lt;div&gt;    &lt;span style=&quot;color: #a31515;&quot;&gt;&quot;graph&quot;&lt;/span&gt; : &lt;span style=&quot;color: #0451a5;font-weight: bold;&quot;&gt;true&lt;/span&gt;,&lt;/div&gt;&lt;div&gt;    &lt;span style=&quot;color: #a31515;&quot;&gt;&quot;algorithm&quot;&lt;/span&gt; : &lt;span style=&quot;color: #0451a5;&quot;&gt;&quot;average&quot;&lt;/span&gt;,&lt;/div&gt;&lt;div&gt;    &lt;span style=&quot;color: #5f8fbf;&quot;&gt;// Needs to be thought out more:&lt;/span&gt;&lt;/div&gt;&lt;div&gt;    &lt;span style=&quot;color: #a31515;&quot;&gt;&quot;algorithmColumns&quot;&lt;/span&gt; : {&lt;/div&gt;&lt;div&gt;        &lt;span style=&quot;color: #a31515;&quot;&gt;&quot;Geslacht&quot;&lt;/span&gt; : &lt;span style=&quot;color: #0451a5;&quot;&gt;&quot;Aanst_22, Gebdat&quot;&lt;/span&gt;&lt;/div&gt;&lt;div&gt;    },&lt;/div&gt;&lt;div&gt;    &lt;span style=&quot;color: #a31515;&quot;&gt;&quot;user&quot;&lt;/span&gt;: {&lt;/div&gt;&lt;div&gt;        &lt;span style=&quot;color: #a31515;&quot;&gt;&quot;ID&quot;&lt;/span&gt;: &lt;span style=&quot;color: #0451a5;&quot;&gt;&quot;&amp;lt;GUID&amp;gt;&quot;&lt;/span&gt;,&lt;/div&gt;&lt;div&gt;        &lt;span style=&quot;color: #a31515;&quot;&gt;&quot;userName&quot;&lt;/span&gt;: &lt;span style=&quot;color: #0451a5;&quot;&gt;&quot;jstutterheim@uva.nl&quot;&lt;/span&gt;&lt;/div&gt;&lt;div&gt;    },&lt;/div&gt;&lt;div&gt;    &lt;span style=&quot;color: #a31515;&quot;&gt;&quot;auth&quot;&lt;/span&gt; : {&lt;/div&gt;&lt;div&gt;        &lt;span style=&quot;color: #a31515;&quot;&gt;&quot;accessToken&quot;&lt;/span&gt;: &lt;span style=&quot;color: #0451a5;&quot;&gt;&quot;&amp;lt;tokenString&amp;gt;&quot;&lt;/span&gt;,&lt;/div&gt;&lt;div&gt;        &lt;span style=&quot;color: #a31515;&quot;&gt;&quot;refreshToken&quot;&lt;/span&gt;: &lt;span style=&quot;color: #0451a5;&quot;&gt;&quot;&amp;lt;tokenString&amp;gt;&quot;&lt;/span&gt;&lt;/div&gt;&lt;div&gt;    }&lt;/div&gt;&lt;div&gt;    &lt;span style=&quot;color: #5f8fbf;&quot;&gt;// Actual token features.... (signedby, audience etc)&lt;/span&gt;&lt;/div&gt;&lt;div&gt;}&lt;/div&gt;&lt;/div&gt;" style="text;html=1;strokeColor=none;fillColor=none;align=left;verticalAlign=middle;whiteSpace=wrap;rounded=0;" vertex="1" parent="pj6VdCcsgE9oZzwB23yW-6">
          <mxGeometry x="-570" y="470" width="380" height="410" as="geometry" />
        </mxCell>
        <mxCell id="pj6VdCcsgE9oZzwB23yW-8" value="" style="endArrow=none;html=1;rounded=0;exitX=1;exitY=0.5;exitDx=0;exitDy=0;endFill=0;startArrow=classic;startFill=1;fillColor=#f5f5f5;strokeColor=#666666;dashed=1;dashPattern=8 8;" edge="1" parent="pj6VdCcsgE9oZzwB23yW-6" source="pj6VdCcsgE9oZzwB23yW-7">
          <mxGeometry width="50" height="50" relative="1" as="geometry">
            <mxPoint x="100" y="530" as="sourcePoint" />
            <mxPoint x="30" y="620" as="targetPoint" />
          </mxGeometry>
        </mxCell>
      </root>
    </mxGraphModel>
  </diagram>
</mxfile>
